<mxfile host="app.diagrams.net" modified="2022-01-23T12:40:42.939Z" agent="5.0 (Macintosh; Intel Mac OS X 10_15_7) AppleWebKit/605.1.15 (KHTML, like Gecko) Version/15.2 Safari/605.1.15" etag="aM33GSclFSDDYOIOAZcO" version="16.4.3" type="github">
  <diagram id="GkwxvoKI0v0egCr2lqlU" name="Page-1">
    <mxGraphModel dx="1577" dy="1075" grid="1" gridSize="10" guides="1" tooltips="1" connect="1" arrows="1" fold="1" page="1" pageScale="1" pageWidth="850" pageHeight="1100" math="0" shadow="0">
      <root>
        <mxCell id="0" />
        <mxCell id="1" parent="0" />
        <mxCell id="_8jVA9xYhieZpfUIizRf-6" value="" style="rounded=1;whiteSpace=wrap;html=1;fillColor=none;dashed=1;strokeColor=#808080;opacity=50;" vertex="1" parent="1">
          <mxGeometry x="440" y="220" width="310" height="180" as="geometry" />
        </mxCell>
        <mxCell id="_8jVA9xYhieZpfUIizRf-5" value="" style="rounded=1;whiteSpace=wrap;html=1;fillColor=none;dashed=1;strokeColor=#808080;opacity=50;" vertex="1" parent="1">
          <mxGeometry x="780" y="220" width="250" height="180" as="geometry" />
        </mxCell>
        <mxCell id="RtcgU3C-zt8aPHX_ZTjs-10" style="edgeStyle=none;rounded=0;orthogonalLoop=1;jettySize=auto;html=1;entryX=0;entryY=0.5;entryDx=0;entryDy=0;endArrow=none;endFill=0;dashed=1;" parent="1" target="RtcgU3C-zt8aPHX_ZTjs-6" edge="1">
          <mxGeometry relative="1" as="geometry">
            <mxPoint x="480" y="255" as="sourcePoint" />
          </mxGeometry>
        </mxCell>
        <mxCell id="RtcgU3C-zt8aPHX_ZTjs-48" style="edgeStyle=none;rounded=0;orthogonalLoop=1;jettySize=auto;html=1;exitX=1;exitY=0.5;exitDx=0;exitDy=0;entryX=0;entryY=0.5;entryDx=0;entryDy=0;fontSize=18;endArrow=none;endFill=0;" parent="1" source="RtcgU3C-zt8aPHX_ZTjs-6" target="RtcgU3C-zt8aPHX_ZTjs-23" edge="1">
          <mxGeometry relative="1" as="geometry" />
        </mxCell>
        <mxCell id="RtcgU3C-zt8aPHX_ZTjs-6" value="" style="ellipse;whiteSpace=wrap;html=1;aspect=fixed;" parent="1" vertex="1">
          <mxGeometry x="530" y="240" width="30" height="30" as="geometry" />
        </mxCell>
        <mxCell id="RtcgU3C-zt8aPHX_ZTjs-25" style="edgeStyle=none;rounded=0;orthogonalLoop=1;jettySize=auto;html=1;exitX=1;exitY=0.5;exitDx=0;exitDy=0;entryX=0;entryY=0.5;entryDx=0;entryDy=0;fontSize=18;endArrow=none;endFill=0;" parent="1" source="RtcgU3C-zt8aPHX_ZTjs-7" target="RtcgU3C-zt8aPHX_ZTjs-23" edge="1">
          <mxGeometry relative="1" as="geometry" />
        </mxCell>
        <mxCell id="_8jVA9xYhieZpfUIizRf-4" style="edgeStyle=orthogonalEdgeStyle;rounded=0;orthogonalLoop=1;jettySize=auto;html=1;exitX=0;exitY=0.5;exitDx=0;exitDy=0;endArrow=none;endFill=0;dashed=1;" edge="1" parent="1" source="RtcgU3C-zt8aPHX_ZTjs-7">
          <mxGeometry relative="1" as="geometry">
            <mxPoint x="480" y="315" as="targetPoint" />
          </mxGeometry>
        </mxCell>
        <mxCell id="RtcgU3C-zt8aPHX_ZTjs-7" value="" style="ellipse;whiteSpace=wrap;html=1;aspect=fixed;" parent="1" vertex="1">
          <mxGeometry x="530" y="300" width="30" height="30" as="geometry" />
        </mxCell>
        <mxCell id="RtcgU3C-zt8aPHX_ZTjs-45" style="edgeStyle=none;rounded=0;orthogonalLoop=1;jettySize=auto;html=1;exitX=1;exitY=0.5;exitDx=0;exitDy=0;entryX=0;entryY=0.5;entryDx=0;entryDy=0;fontSize=18;endArrow=none;endFill=0;" parent="1" source="RtcgU3C-zt8aPHX_ZTjs-9" target="RtcgU3C-zt8aPHX_ZTjs-23" edge="1">
          <mxGeometry relative="1" as="geometry" />
        </mxCell>
        <mxCell id="RtcgU3C-zt8aPHX_ZTjs-9" value="" style="ellipse;whiteSpace=wrap;html=1;aspect=fixed;" parent="1" vertex="1">
          <mxGeometry x="530" y="360" width="30" height="30" as="geometry" />
        </mxCell>
        <mxCell id="RtcgU3C-zt8aPHX_ZTjs-51" style="edgeStyle=none;rounded=0;orthogonalLoop=1;jettySize=auto;html=1;exitX=1;exitY=0.5;exitDx=0;exitDy=0;entryX=0;entryY=0.5;entryDx=0;entryDy=0;fontSize=18;endArrow=none;endFill=0;" parent="1" source="RtcgU3C-zt8aPHX_ZTjs-23" target="RtcgU3C-zt8aPHX_ZTjs-50" edge="1">
          <mxGeometry relative="1" as="geometry" />
        </mxCell>
        <mxCell id="RtcgU3C-zt8aPHX_ZTjs-23" value="" style="ellipse;whiteSpace=wrap;html=1;aspect=fixed;" parent="1" vertex="1">
          <mxGeometry x="630" y="300" width="30" height="30" as="geometry" />
        </mxCell>
        <mxCell id="RtcgU3C-zt8aPHX_ZTjs-38" value="beds" style="text;html=1;align=center;verticalAlign=middle;resizable=0;points=[];autosize=1;strokeColor=none;fillColor=none;fontSize=18;" parent="1" vertex="1">
          <mxGeometry x="570" y="290" width="50" height="30" as="geometry" />
        </mxCell>
        <mxCell id="RtcgU3C-zt8aPHX_ZTjs-46" value="bad" style="text;html=1;align=center;verticalAlign=middle;resizable=0;points=[];autosize=1;strokeColor=none;fillColor=none;fontSize=18;" parent="1" vertex="1">
          <mxGeometry x="579" y="342.5" width="50" height="30" as="geometry" />
        </mxCell>
        <mxCell id="RtcgU3C-zt8aPHX_ZTjs-49" value="bed" style="text;html=1;align=center;verticalAlign=middle;resizable=0;points=[];autosize=1;strokeColor=none;fillColor=none;fontSize=18;" parent="1" vertex="1">
          <mxGeometry x="570" y="247.5" width="50" height="30" as="geometry" />
        </mxCell>
        <mxCell id="C9ZBkIMCZwjg9T-4nxOc-152" style="edgeStyle=orthogonalEdgeStyle;rounded=0;orthogonalLoop=1;jettySize=auto;html=1;exitX=1;exitY=0.5;exitDx=0;exitDy=0;entryX=0;entryY=0.5;entryDx=0;entryDy=0;fontColor=#000000;strokeColor=#FF33FF;endArrow=none;endFill=0;dashed=1;strokeWidth=2;" parent="1" source="RtcgU3C-zt8aPHX_ZTjs-50" target="PLGYQZCd30LQGUTYlzt7-20" edge="1">
          <mxGeometry relative="1" as="geometry" />
        </mxCell>
        <mxCell id="RtcgU3C-zt8aPHX_ZTjs-50" value="" style="ellipse;whiteSpace=wrap;html=1;aspect=fixed;" parent="1" vertex="1">
          <mxGeometry x="710" y="300" width="30" height="30" as="geometry" />
        </mxCell>
        <mxCell id="RtcgU3C-zt8aPHX_ZTjs-53" value="&amp;lt;/s&amp;gt;" style="text;html=1;align=center;verticalAlign=middle;resizable=0;points=[];autosize=1;strokeColor=none;fillColor=none;fontSize=18;" parent="1" vertex="1">
          <mxGeometry x="660" y="290" width="50" height="30" as="geometry" />
        </mxCell>
        <mxCell id="RtcgU3C-zt8aPHX_ZTjs-86" style="edgeStyle=none;rounded=0;orthogonalLoop=1;jettySize=auto;html=1;exitX=1;exitY=0.5;exitDx=0;exitDy=0;fontSize=18;endArrow=none;endFill=0;dashed=1;" parent="1" edge="1">
          <mxGeometry relative="1" as="geometry">
            <mxPoint x="970.0000000000002" y="314.71" as="sourcePoint" />
            <mxPoint x="1010" y="314.71" as="targetPoint" />
          </mxGeometry>
        </mxCell>
        <mxCell id="RtcgU3C-zt8aPHX_ZTjs-119" value="&lt;font color=&quot;#000000&quot; style=&quot;font-size: 23px&quot;&gt;&lt;font face=&quot;Verdana&quot;&gt;Utterance 1:&lt;br&gt;(Evaluated)&lt;/font&gt;&lt;br&gt;&lt;/font&gt;" style="text;html=1;align=center;verticalAlign=middle;resizable=0;points=[];autosize=1;strokeColor=none;fillColor=none;fontSize=30;fontFamily=Garamond;fontColor=#FF0000;" parent="1" vertex="1">
          <mxGeometry x="520" y="110" width="160" height="80" as="geometry" />
        </mxCell>
        <mxCell id="RtcgU3C-zt8aPHX_ZTjs-120" value="&lt;font color=&quot;#000000&quot; style=&quot;font-size: 23px&quot;&gt;&lt;font face=&quot;Verdana&quot;&gt;Utterance 2:&lt;br&gt;(Evaluating)&lt;/font&gt;&lt;br&gt;&lt;/font&gt;" style="text;html=1;align=center;verticalAlign=middle;resizable=0;points=[];autosize=1;strokeColor=none;fillColor=none;fontSize=30;fontFamily=Garamond;fontColor=#FF0000;" parent="1" vertex="1">
          <mxGeometry x="820" y="110" width="160" height="80" as="geometry" />
        </mxCell>
        <mxCell id="PLGYQZCd30LQGUTYlzt7-15" value="" style="ellipse;whiteSpace=wrap;html=1;aspect=fixed;fontColor=#000000;strokeColor=#000000;" parent="1" vertex="1">
          <mxGeometry x="950" y="300" width="30" height="30" as="geometry" />
        </mxCell>
        <mxCell id="PLGYQZCd30LQGUTYlzt7-16" style="edgeStyle=none;rounded=0;orthogonalLoop=1;jettySize=auto;html=1;exitX=1;exitY=0.5;exitDx=0;exitDy=0;entryX=0;entryY=0.5;entryDx=0;entryDy=0;fontSize=18;endArrow=none;endFill=0;fontColor=#000000;strokeColor=#000000;" parent="1" source="PLGYQZCd30LQGUTYlzt7-17" target="PLGYQZCd30LQGUTYlzt7-15" edge="1">
          <mxGeometry relative="1" as="geometry" />
        </mxCell>
        <mxCell id="PLGYQZCd30LQGUTYlzt7-17" value="" style="ellipse;whiteSpace=wrap;html=1;aspect=fixed;fontColor=#000000;strokeColor=#000000;" parent="1" vertex="1">
          <mxGeometry x="870" y="300" width="30" height="30" as="geometry" />
        </mxCell>
        <mxCell id="PLGYQZCd30LQGUTYlzt7-18" value="&lt;font style=&quot;font-size: 18px&quot;&gt;sleep&lt;/font&gt;" style="text;html=1;align=center;verticalAlign=middle;resizable=0;points=[];autosize=1;strokeColor=none;fillColor=none;fontColor=#000000;" parent="1" vertex="1">
          <mxGeometry x="896" y="290" width="60" height="20" as="geometry" />
        </mxCell>
        <mxCell id="PLGYQZCd30LQGUTYlzt7-19" style="edgeStyle=none;rounded=0;orthogonalLoop=1;jettySize=auto;html=1;exitX=1;exitY=0.5;exitDx=0;exitDy=0;entryX=0;entryY=0.5;entryDx=0;entryDy=0;fontFamily=Garamond;fontSize=30;endArrow=none;endFill=0;fontColor=#000000;strokeColor=#000000;" parent="1" source="PLGYQZCd30LQGUTYlzt7-20" target="PLGYQZCd30LQGUTYlzt7-17" edge="1">
          <mxGeometry relative="1" as="geometry" />
        </mxCell>
        <mxCell id="PLGYQZCd30LQGUTYlzt7-20" value="" style="ellipse;whiteSpace=wrap;html=1;aspect=fixed;fontColor=#000000;strokeColor=#000000;" parent="1" vertex="1">
          <mxGeometry x="790" y="300" width="30" height="30" as="geometry" />
        </mxCell>
        <mxCell id="PLGYQZCd30LQGUTYlzt7-21" value="&lt;font style=&quot;font-size: 18px&quot;&gt;&amp;lt;s&amp;gt;&lt;/font&gt;" style="text;html=1;align=center;verticalAlign=middle;resizable=0;points=[];autosize=1;strokeColor=none;fillColor=none;fontColor=#000000;" parent="1" vertex="1">
          <mxGeometry x="820" y="290" width="50" height="20" as="geometry" />
        </mxCell>
        <mxCell id="lsaDlD894_GOqP_V-987-17" style="edgeStyle=orthogonalEdgeStyle;rounded=0;orthogonalLoop=1;jettySize=auto;html=1;entryX=0;entryY=0.5;entryDx=0;entryDy=0;fontColor=#FF8000;strokeColor=#000000;endArrow=none;endFill=0;dashed=1;" parent="1" target="RtcgU3C-zt8aPHX_ZTjs-9" edge="1">
          <mxGeometry relative="1" as="geometry">
            <mxPoint x="480" y="375" as="sourcePoint" />
          </mxGeometry>
        </mxCell>
        <mxCell id="_8jVA9xYhieZpfUIizRf-7" style="edgeStyle=none;rounded=0;orthogonalLoop=1;jettySize=auto;html=1;entryX=0;entryY=0.5;entryDx=0;entryDy=0;endArrow=none;endFill=0;dashed=1;fontColor=#FF8000;strokeColor=#FF8000;" edge="1" parent="1" target="_8jVA9xYhieZpfUIizRf-9">
          <mxGeometry relative="1" as="geometry">
            <mxPoint x="1150" y="261.5" as="sourcePoint" />
          </mxGeometry>
        </mxCell>
        <mxCell id="_8jVA9xYhieZpfUIizRf-8" style="edgeStyle=none;rounded=0;orthogonalLoop=1;jettySize=auto;html=1;exitX=1;exitY=0.5;exitDx=0;exitDy=0;entryX=0;entryY=0.5;entryDx=0;entryDy=0;fontSize=18;endArrow=none;endFill=0;fontColor=#FF8000;strokeColor=#FF8000;" edge="1" parent="1" source="_8jVA9xYhieZpfUIizRf-9" target="_8jVA9xYhieZpfUIizRf-16">
          <mxGeometry relative="1" as="geometry" />
        </mxCell>
        <mxCell id="_8jVA9xYhieZpfUIizRf-9" value="" style="ellipse;whiteSpace=wrap;html=1;aspect=fixed;fontColor=#FF8000;strokeColor=#FF8000;" vertex="1" parent="1">
          <mxGeometry x="1200" y="246.5" width="30" height="30" as="geometry" />
        </mxCell>
        <mxCell id="_8jVA9xYhieZpfUIizRf-10" style="edgeStyle=none;rounded=0;orthogonalLoop=1;jettySize=auto;html=1;exitX=1;exitY=0.5;exitDx=0;exitDy=0;entryX=0;entryY=0.5;entryDx=0;entryDy=0;fontSize=18;endArrow=none;endFill=0;fontColor=#FF8000;strokeColor=#FF8000;" edge="1" parent="1" source="_8jVA9xYhieZpfUIizRf-12" target="_8jVA9xYhieZpfUIizRf-39">
          <mxGeometry relative="1" as="geometry" />
        </mxCell>
        <mxCell id="_8jVA9xYhieZpfUIizRf-11" style="edgeStyle=orthogonalEdgeStyle;rounded=0;orthogonalLoop=1;jettySize=auto;html=1;exitX=0;exitY=0.5;exitDx=0;exitDy=0;endArrow=none;endFill=0;dashed=1;fontColor=#FF8000;strokeColor=#FF8000;" edge="1" parent="1" source="_8jVA9xYhieZpfUIizRf-12">
          <mxGeometry relative="1" as="geometry">
            <mxPoint x="1150" y="312.5" as="targetPoint" />
          </mxGeometry>
        </mxCell>
        <mxCell id="_8jVA9xYhieZpfUIizRf-12" value="" style="ellipse;whiteSpace=wrap;html=1;aspect=fixed;fontColor=#FF8000;strokeColor=#FF8000;" vertex="1" parent="1">
          <mxGeometry x="1200" y="297.5" width="30" height="30" as="geometry" />
        </mxCell>
        <mxCell id="_8jVA9xYhieZpfUIizRf-13" style="edgeStyle=none;rounded=0;orthogonalLoop=1;jettySize=auto;html=1;exitX=1;exitY=0.5;exitDx=0;exitDy=0;entryX=0;entryY=0.5;entryDx=0;entryDy=0;fontSize=18;endArrow=none;endFill=0;" edge="1" parent="1" source="_8jVA9xYhieZpfUIizRf-14" target="_8jVA9xYhieZpfUIizRf-56">
          <mxGeometry relative="1" as="geometry" />
        </mxCell>
        <mxCell id="_8jVA9xYhieZpfUIizRf-14" value="" style="ellipse;whiteSpace=wrap;html=1;aspect=fixed;" vertex="1" parent="1">
          <mxGeometry x="1200" y="349.5" width="30" height="30" as="geometry" />
        </mxCell>
        <mxCell id="_8jVA9xYhieZpfUIizRf-15" style="edgeStyle=none;rounded=0;orthogonalLoop=1;jettySize=auto;html=1;exitX=1;exitY=0.5;exitDx=0;exitDy=0;entryX=0;entryY=0.5;entryDx=0;entryDy=0;fontSize=18;endArrow=none;endFill=0;fontColor=#FF8000;strokeColor=#FF8000;" edge="1" parent="1" source="_8jVA9xYhieZpfUIizRf-16" target="_8jVA9xYhieZpfUIizRf-33">
          <mxGeometry relative="1" as="geometry">
            <mxPoint x="1299" y="261" as="targetPoint" />
          </mxGeometry>
        </mxCell>
        <mxCell id="_8jVA9xYhieZpfUIizRf-16" value="" style="ellipse;whiteSpace=wrap;html=1;aspect=fixed;fontColor=#FF8000;strokeColor=#FF8000;" vertex="1" parent="1">
          <mxGeometry x="1299" y="246" width="30" height="30" as="geometry" />
        </mxCell>
        <mxCell id="_8jVA9xYhieZpfUIizRf-17" value="beds" style="text;html=1;align=center;verticalAlign=middle;resizable=0;points=[];autosize=1;strokeColor=none;fillColor=none;fontSize=18;fontColor=#FF8000;" vertex="1" parent="1">
          <mxGeometry x="1240" y="282" width="50" height="30" as="geometry" />
        </mxCell>
        <mxCell id="_8jVA9xYhieZpfUIizRf-18" value="bad" style="text;html=1;align=center;verticalAlign=middle;resizable=0;points=[];autosize=1;strokeColor=none;fillColor=none;fontSize=18;" vertex="1" parent="1">
          <mxGeometry x="1240" y="334.5" width="50" height="30" as="geometry" />
        </mxCell>
        <mxCell id="_8jVA9xYhieZpfUIizRf-19" value="bed" style="text;html=1;align=center;verticalAlign=middle;resizable=0;points=[];autosize=1;strokeColor=none;fillColor=none;fontSize=18;fontColor=#FF8000;" vertex="1" parent="1">
          <mxGeometry x="1240" y="231" width="50" height="30" as="geometry" />
        </mxCell>
        <mxCell id="_8jVA9xYhieZpfUIizRf-22" value="&amp;lt;/s&amp;gt;" style="text;html=1;align=center;verticalAlign=middle;resizable=0;points=[];autosize=1;strokeColor=none;fillColor=none;fontSize=18;fontColor=#FF8000;" vertex="1" parent="1">
          <mxGeometry x="1329" y="231" width="50" height="30" as="geometry" />
        </mxCell>
        <mxCell id="_8jVA9xYhieZpfUIizRf-32" style="edgeStyle=none;rounded=0;orthogonalLoop=1;jettySize=auto;html=1;exitX=1;exitY=0.5;exitDx=0;exitDy=0;entryX=0;entryY=0.5;entryDx=0;entryDy=0;fontFamily=Garamond;fontSize=30;endArrow=none;endFill=0;fontColor=#FF8000;strokeColor=#FF8000;" edge="1" parent="1" source="_8jVA9xYhieZpfUIizRf-33" target="_8jVA9xYhieZpfUIizRf-48">
          <mxGeometry relative="1" as="geometry" />
        </mxCell>
        <mxCell id="_8jVA9xYhieZpfUIizRf-33" value="" style="ellipse;whiteSpace=wrap;html=1;aspect=fixed;fontColor=#FF8000;strokeColor=#FF8000;" vertex="1" parent="1">
          <mxGeometry x="1379" y="246" width="30" height="30" as="geometry" />
        </mxCell>
        <mxCell id="_8jVA9xYhieZpfUIizRf-34" value="&lt;font style=&quot;font-size: 18px&quot;&gt;&amp;lt;s&amp;gt;&lt;/font&gt;" style="text;html=1;align=center;verticalAlign=middle;resizable=0;points=[];autosize=1;strokeColor=none;fillColor=none;fontColor=#FF8000;" vertex="1" parent="1">
          <mxGeometry x="1410" y="252" width="50" height="20" as="geometry" />
        </mxCell>
        <mxCell id="_8jVA9xYhieZpfUIizRf-35" style="edgeStyle=orthogonalEdgeStyle;rounded=0;orthogonalLoop=1;jettySize=auto;html=1;entryX=0;entryY=0.5;entryDx=0;entryDy=0;fontColor=#FF8000;strokeColor=#000000;endArrow=none;endFill=0;dashed=1;" edge="1" parent="1" target="_8jVA9xYhieZpfUIizRf-14">
          <mxGeometry relative="1" as="geometry">
            <mxPoint x="1150" y="364.5" as="sourcePoint" />
          </mxGeometry>
        </mxCell>
        <mxCell id="_8jVA9xYhieZpfUIizRf-38" style="edgeStyle=none;rounded=0;orthogonalLoop=1;jettySize=auto;html=1;exitX=1;exitY=0.5;exitDx=0;exitDy=0;entryX=0;entryY=0.5;entryDx=0;entryDy=0;fontSize=18;endArrow=none;endFill=0;fontColor=#FF8000;strokeColor=#FF8000;" edge="1" parent="1" source="_8jVA9xYhieZpfUIizRf-39" target="_8jVA9xYhieZpfUIizRf-51">
          <mxGeometry relative="1" as="geometry">
            <mxPoint x="1299" y="312" as="targetPoint" />
          </mxGeometry>
        </mxCell>
        <mxCell id="_8jVA9xYhieZpfUIizRf-39" value="" style="ellipse;whiteSpace=wrap;html=1;aspect=fixed;fontColor=#FF8000;strokeColor=#FF8000;" vertex="1" parent="1">
          <mxGeometry x="1299" y="297" width="30" height="30" as="geometry" />
        </mxCell>
        <mxCell id="_8jVA9xYhieZpfUIizRf-40" value="&amp;lt;/s&amp;gt;" style="text;html=1;align=center;verticalAlign=middle;resizable=0;points=[];autosize=1;strokeColor=none;fillColor=none;fontSize=18;fontColor=#FF8000;" vertex="1" parent="1">
          <mxGeometry x="1329" y="282" width="50" height="30" as="geometry" />
        </mxCell>
        <mxCell id="_8jVA9xYhieZpfUIizRf-47" style="edgeStyle=none;rounded=0;orthogonalLoop=1;jettySize=auto;html=1;exitX=1;exitY=0.5;exitDx=0;exitDy=0;entryX=0;entryY=0.5;entryDx=0;entryDy=0;fontSize=18;endArrow=none;endFill=0;fontColor=#000000;strokeColor=#000000;" edge="1" parent="1" source="_8jVA9xYhieZpfUIizRf-48">
          <mxGeometry relative="1" as="geometry">
            <mxPoint x="1539" y="312" as="targetPoint" />
          </mxGeometry>
        </mxCell>
        <mxCell id="_8jVA9xYhieZpfUIizRf-48" value="" style="ellipse;whiteSpace=wrap;html=1;aspect=fixed;fontColor=#000000;strokeColor=#000000;" vertex="1" parent="1">
          <mxGeometry x="1459" y="297" width="30" height="30" as="geometry" />
        </mxCell>
        <mxCell id="_8jVA9xYhieZpfUIizRf-49" value="&lt;font style=&quot;font-size: 18px&quot;&gt;sleep&lt;/font&gt;" style="text;html=1;align=center;verticalAlign=middle;resizable=0;points=[];autosize=1;strokeColor=none;fillColor=none;fontColor=#000000;" vertex="1" parent="1">
          <mxGeometry x="1485" y="287" width="60" height="20" as="geometry" />
        </mxCell>
        <mxCell id="_8jVA9xYhieZpfUIizRf-50" style="edgeStyle=none;rounded=0;orthogonalLoop=1;jettySize=auto;html=1;exitX=1;exitY=0.5;exitDx=0;exitDy=0;entryX=0;entryY=0.5;entryDx=0;entryDy=0;fontFamily=Garamond;fontSize=30;endArrow=none;endFill=0;fontColor=#FF8000;strokeColor=#FF8000;" edge="1" parent="1" source="_8jVA9xYhieZpfUIizRf-51" target="_8jVA9xYhieZpfUIizRf-48">
          <mxGeometry relative="1" as="geometry" />
        </mxCell>
        <mxCell id="_8jVA9xYhieZpfUIizRf-51" value="" style="ellipse;whiteSpace=wrap;html=1;aspect=fixed;fontColor=#FF8000;strokeColor=#FF8000;" vertex="1" parent="1">
          <mxGeometry x="1379" y="297" width="30" height="30" as="geometry" />
        </mxCell>
        <mxCell id="_8jVA9xYhieZpfUIizRf-52" value="&lt;font style=&quot;font-size: 18px&quot;&gt;&amp;lt;s&amp;gt;&lt;/font&gt;" style="text;html=1;align=center;verticalAlign=middle;resizable=0;points=[];autosize=1;strokeColor=none;fillColor=none;fontColor=#FF8000;" vertex="1" parent="1">
          <mxGeometry x="1409" y="292" width="50" height="20" as="geometry" />
        </mxCell>
        <mxCell id="_8jVA9xYhieZpfUIizRf-55" style="edgeStyle=none;rounded=0;orthogonalLoop=1;jettySize=auto;html=1;exitX=1;exitY=0.5;exitDx=0;exitDy=0;entryX=0;entryY=0.5;entryDx=0;entryDy=0;fontSize=18;endArrow=none;endFill=0;" edge="1" parent="1" source="_8jVA9xYhieZpfUIizRf-56" target="_8jVA9xYhieZpfUIizRf-68">
          <mxGeometry relative="1" as="geometry">
            <mxPoint x="1299" y="364.5" as="targetPoint" />
          </mxGeometry>
        </mxCell>
        <mxCell id="_8jVA9xYhieZpfUIizRf-56" value="" style="ellipse;whiteSpace=wrap;html=1;aspect=fixed;" vertex="1" parent="1">
          <mxGeometry x="1299" y="349.5" width="30" height="30" as="geometry" />
        </mxCell>
        <mxCell id="_8jVA9xYhieZpfUIizRf-57" value="&amp;lt;/s&amp;gt;" style="text;html=1;align=center;verticalAlign=middle;resizable=0;points=[];autosize=1;strokeColor=none;fillColor=none;fontSize=18;" vertex="1" parent="1">
          <mxGeometry x="1329" y="334.5" width="50" height="30" as="geometry" />
        </mxCell>
        <mxCell id="_8jVA9xYhieZpfUIizRf-67" style="edgeStyle=none;rounded=0;orthogonalLoop=1;jettySize=auto;html=1;exitX=1;exitY=0.5;exitDx=0;exitDy=0;entryX=0;entryY=0.5;entryDx=0;entryDy=0;fontFamily=Garamond;fontSize=30;endArrow=none;endFill=0;fontColor=#000000;strokeColor=#000000;" edge="1" parent="1" source="_8jVA9xYhieZpfUIizRf-68" target="_8jVA9xYhieZpfUIizRf-48">
          <mxGeometry relative="1" as="geometry" />
        </mxCell>
        <mxCell id="_8jVA9xYhieZpfUIizRf-68" value="" style="ellipse;whiteSpace=wrap;html=1;aspect=fixed;fontColor=#000000;strokeColor=#000000;" vertex="1" parent="1">
          <mxGeometry x="1379" y="349.5" width="30" height="30" as="geometry" />
        </mxCell>
        <mxCell id="_8jVA9xYhieZpfUIizRf-69" value="&lt;font style=&quot;font-size: 18px&quot;&gt;&amp;lt;s&amp;gt;&lt;/font&gt;" style="text;html=1;align=center;verticalAlign=middle;resizable=0;points=[];autosize=1;strokeColor=none;fillColor=none;fontColor=#000000;" vertex="1" parent="1">
          <mxGeometry x="1410" y="344.5" width="50" height="20" as="geometry" />
        </mxCell>
        <mxCell id="_8jVA9xYhieZpfUIizRf-73" value="" style="ellipse;whiteSpace=wrap;html=1;aspect=fixed;fontColor=#000000;strokeColor=#000000;" vertex="1" parent="1">
          <mxGeometry x="1540" y="297" width="30" height="30" as="geometry" />
        </mxCell>
        <mxCell id="_8jVA9xYhieZpfUIizRf-74" style="edgeStyle=none;rounded=0;orthogonalLoop=1;jettySize=auto;html=1;exitX=1;exitY=0.5;exitDx=0;exitDy=0;fontSize=18;endArrow=none;endFill=0;dashed=1;" edge="1" parent="1">
          <mxGeometry relative="1" as="geometry">
            <mxPoint x="1570.0000000000002" y="311.43000000000006" as="sourcePoint" />
            <mxPoint x="1610" y="311.43000000000006" as="targetPoint" />
          </mxGeometry>
        </mxCell>
        <mxCell id="_8jVA9xYhieZpfUIizRf-75" value="" style="shape=flexArrow;endArrow=classic;html=1;rounded=0;fontFamily=Verdana;fontSize=23;fontColor=#FF8000;strokeColor=#10739e;fillColor=#b1ddf0;width=14.117647058823529;endSize=8.447058823529412;" edge="1" parent="1">
          <mxGeometry width="50" height="50" relative="1" as="geometry">
            <mxPoint x="1060" y="310" as="sourcePoint" />
            <mxPoint x="1120" y="310" as="targetPoint" />
          </mxGeometry>
        </mxCell>
      </root>
    </mxGraphModel>
  </diagram>
</mxfile>
